<svg width="24" height="24" viewBox="0 0 24 24" fill="none" xmlns="http://www.w3.org/2000/svg">
<path d="M24 2.5C24 3.88071 22.8807 5 21.5 5C20.1193 5 19 3.88071 19 2.5C19 1.11929 20.1193 0 21.5 0C22.8807 0 24 1.11929 24 2.5Z" fill="black"/>
<path d="M24 21.5C24 22.8807 22.8807 24 21.5 24C20.1193 24 19 22.8807 19 21.5C19 20.1193 20.1193 19 21.5 19C22.8807 19 24 20.1193 24 21.5Z" fill="black"/>
<path d="M5 2.5C5 3.88071 3.88071 5 2.5 5C1.11929 5 0 3.88071 0 2.5C0 1.11929 1.11929 0 2.5 0C3.88071 0 5 1.11929 5 2.5Z" fill="black"/>
<path d="M5 21.5C5 22.8807 3.88071 24 2.5 24C1.11929 24 0 22.8807 0 21.5C0 20.1193 1.11929 19 2.5 19C3.88071 19 5 20.1193 5 21.5Z" fill="black"/>
<path d="M0 12C0 5.37258 5.37258 0 12 0C18.6274 0 24 5.37258 24 12C24 18.6274 18.6274 24 12 24C5.37258 24 0 18.6274 0 12Z" fill="#303F9F"/>
<path d="M14 8H17.5C19.433 8 21 9.567 21 11.5C21 13.433 19.433 15 17.5 15H14V8Z" fill="#FDD835"/>
</svg>
